<svg width="1018" height="709" viewBox="0 0 1018 709" fill="none" xmlns="http://www.w3.org/2000/svg">
<path opacity="0.1" d="M632.103 202.211C575.046 200.206 520.705 181.594 468.806 161.227C416.907 140.859 365.519 118.291 309.829 107.546C274.01 100.605 233.051 99.625 204.188 119.03C176.417 137.741 167.443 169.949 162.612 199.859C158.988 222.374 156.846 246.056 166.799 267.127C173.702 281.757 185.965 294.052 194.446 308.067C223.944 356.821 203.094 416.943 171.119 464.548C156.132 486.875 138.729 508.205 127.154 531.958C115.579 555.711 110.228 582.966 120.348 607.218C130.39 631.274 154.307 649.308 180.208 662.004C232.83 687.789 294.815 695.175 355.31 699.353C489.153 708.61 623.719 704.601 757.915 700.592C807.584 699.104 857.464 697.598 906.322 689.838C933.457 685.526 961.474 678.683 981.169 662.218C1006.17 641.253 1012.37 605.748 995.618 579.465C967.513 535.371 889.827 524.412 870.159 477.092C859.342 451.049 870.45 422.031 886.16 397.876C919.872 346.049 976.373 300.592 979.353 241.351C981.398 200.67 954.236 159.926 912.237 140.672C868.211 120.491 807.169 123.031 774.709 156.433C741.244 190.744 682.477 203.975 632.103 202.211Z" fill="#00BFA6"/>
<path d="M879.992 661.73C878.938 657.923 877.884 654.064 875.777 650.751C873.822 647.94 871.497 645.404 868.865 643.212C861.226 636.282 851.838 629.247 841.713 631.003C838.572 631.688 835.539 632.791 832.693 634.284C831.218 634.967 829.733 635.651 828.215 636.229C823.941 638.011 819.217 638.423 814.697 637.407C812.379 636.786 810.219 635.672 807.933 634.978C806.843 634.653 805.73 634.414 804.603 634.263C806.81 633.265 808.957 632.138 811.03 630.887C822.399 623.873 831.471 611.254 830.196 597.899C829.775 593.377 828.215 589.055 826.677 584.796C825.328 581.074 823.976 577.348 822.621 573.618C820.871 568.77 819.07 563.838 815.867 559.811C812.305 555.331 807.248 552.292 802.022 550.021C790.79 545.152 778.515 543.438 766.398 541.776L765.555 541.66V411.012C765.562 409.903 765.349 408.803 764.929 407.777C764.508 406.75 763.888 405.816 763.105 405.029C762.321 404.243 761.39 403.618 760.364 403.192C759.338 402.766 758.237 402.547 757.126 402.547H741.184C740.482 398.256 739.779 393.969 739.077 389.686C737.064 377.477 734.989 365.026 729.352 354.027C725.664 346.824 719.785 339.967 711.872 338.548C710.314 338.403 708.783 338.049 707.32 337.496C705.002 336.36 703.737 333.837 701.946 331.965C697.352 327.159 689.882 327.085 683.718 324.604C678.281 322.448 673.835 318.378 668.883 315.255C663.931 312.132 657.767 309.903 652.277 311.943C652.277 312.342 652.204 312.731 652.161 313.131L648.642 311.554C644.849 309.808 640.972 307.999 637.927 305.118C634.007 301.427 631.921 296.558 630.298 291.363C630.13 290.816 629.972 290.312 629.814 289.733C636.547 282.866 641.106 274.173 642.921 264.737C643.205 265.652 643.5 266.577 643.785 267.503C644.044 268.444 644.397 269.356 644.839 270.226C644.985 270.514 645.15 270.792 645.334 271.057C645.682 271.573 646.116 272.025 646.619 272.393C647.118 272.755 647.703 272.984 648.316 273.055C648.609 273.097 648.907 273.097 649.201 273.055C649.996 272.887 650.737 272.523 651.356 271.996C651.974 271.469 652.45 270.795 652.741 270.037C652.909 269.624 653.033 269.194 653.11 268.754C653.15 268.49 653.175 268.223 653.184 267.955C653.184 267.871 653.184 267.787 653.184 267.703C653.184 267.619 653.184 267.335 653.184 267.156C653.184 266.977 653.184 266.956 653.184 266.861C653.184 266.767 653.184 266.504 653.184 266.336V266.062C653.184 265.852 653.12 265.642 653.078 265.442C653.036 265.242 653.078 265.326 653.078 265.274C653.025 265 652.962 264.737 652.91 264.464C652.904 264.404 652.904 264.345 652.91 264.285L652.752 263.623L652.657 263.223V263.118C652.551 262.708 652.456 262.287 652.362 261.866C651.596 258.213 651.4 254.464 651.782 250.751C652.417 245.305 653.424 239.908 654.796 234.599L655.017 233.642L655.27 232.527C655.438 231.77 655.596 231.013 655.754 230.256C655.891 229.614 656.018 228.962 656.134 228.31C656.25 227.658 656.334 227.164 656.418 226.586C656.418 226.512 656.418 226.449 656.418 226.376C657.062 222.456 657.235 218.474 656.935 214.514V214.514C656.439 209.014 654.732 203.809 650.981 199.655C648.337 196.721 644.86 194.555 642.405 191.474C640.097 188.582 638.801 185.027 636.42 182.199C629.835 174.354 612.945 168.307 602.577 167.256C590.702 166.057 571.515 169.085 561.948 176.089C558.408 178.676 555.985 182.398 553.519 185.942C548.988 192.525 543.836 199.087 536.576 202.768C533.826 204.156 530.686 205.207 528.864 207.626C527.762 209.266 527.042 211.13 526.756 213.084C525.356 219.937 524.629 226.91 524.586 233.905C524.428 236.964 524.821 240.027 525.745 242.948C525.892 243.348 526.072 243.758 526.261 244.147C526.43 244.494 526.619 244.841 526.82 245.199L526.946 245.42C528.218 247.241 529.348 249.157 530.328 251.151C530.56 251.712 530.73 252.298 530.834 252.896C531.015 254.44 530.915 256.004 530.539 257.513C530.539 257.744 530.455 257.965 530.402 258.186L530.307 258.67C530.307 258.817 530.307 258.975 530.223 259.122C530.139 259.577 530.065 260.03 530.002 260.478C530.002 260.794 529.938 261.12 529.928 261.446C529.853 262.748 530.103 264.049 530.655 265.231C530.793 265.513 530.959 265.781 531.15 266.031C531.528 266.535 532.014 266.948 532.573 267.24C533.828 267.711 535.138 268.022 536.471 268.165C540.412 269.049 542.877 272.056 544.479 275.747C544.834 276.576 545.147 277.422 545.416 278.282C546.074 280.439 546.567 282.643 546.892 284.875C548.683 284.78 549.726 283.203 550.358 281.478C550.556 280.91 550.721 280.33 550.853 279.743C551.096 278.639 551.338 277.535 551.591 276.431C555.75 285.238 562.449 292.605 570.83 297.589C571.125 298.451 571.41 299.324 571.673 300.207C573.054 304.971 573.717 309.966 571.326 314.13C569.619 317.085 566.742 318.915 563.539 320.177C563.078 319.559 562.484 319.052 561.801 318.694C559.019 317.306 555.69 318.999 553.371 321.07C549.157 324.877 545.722 330.335 540.169 331.586C538.167 332.049 535.955 331.954 534.279 333.174C533.176 334.21 532.254 335.422 531.551 336.76C530.346 338.484 528.727 339.879 526.842 340.816C524.957 341.753 522.866 342.203 520.761 342.123C518.833 342.028 516.547 341.587 515.229 342.996C514.25 344.047 514.176 345.719 513.122 346.718C511.7 348.107 509.392 347.423 507.411 347.339C505.98 347.343 504.565 347.637 503.251 348.205C501.938 348.773 500.754 349.602 499.772 350.641C499.648 346.398 498.02 342.337 495.179 339.179C492.334 336.255 488.383 334.751 485.011 332.459C476.582 326.738 472.367 316.685 467.973 307.473C463.58 298.262 457.785 288.545 448.196 285.19C445.994 284.412 442.928 284.349 441.938 286.484C441.601 287.375 441.546 288.347 441.78 289.271C442.707 294.171 446.205 298.104 449.229 302.047C454.318 308.693 458.585 316.822 457.353 325.13C455.909 334.962 447.132 342.596 446.079 352.471C445.615 356.824 446.721 361.199 446.711 365.573C446.711 368.307 446.279 371.073 446.869 373.734C447.496 375.755 448.238 377.739 449.092 379.675C450.042 382.853 450.531 386.149 450.546 389.465C451.291 403.402 452.032 417.343 452.769 431.287C453.328 441.687 451.052 451.95 448.755 462.182C445.907 468.247 443.697 474.591 442.159 481.11C439.567 492.499 439.493 504.634 443.213 515.718C445.204 521.744 448.26 527.391 449.893 533.521C449.893 533.658 449.956 533.784 449.988 533.91C450.146 535.214 450.325 536.518 450.567 537.812C450.867 539.306 451.257 540.781 451.737 542.228C452.215 544.721 452.993 547.147 454.055 549.453C455.532 552.382 457.702 554.908 460.377 556.814C458.859 559.779 456.404 562.166 454.771 565.069C451.926 570.095 451.81 576.268 452.843 581.968C454.834 592.967 460.788 602.799 468.648 610.791C468.297 610.771 467.945 610.771 467.594 610.791C465.023 611.075 462.554 611.958 460.387 613.368C443.75 623.074 434.236 643.864 437.713 662.897C438.398 666.62 439.588 670.384 442.075 673.213C444.145 675.465 446.806 677.094 449.756 677.914C451.598 678.467 453.495 678.82 455.414 678.965C468.384 680.017 480.944 674.012 493.946 673.508C498.257 673.44 502.567 673.64 506.853 674.107C513.112 674.626 519.384 674.955 525.671 675.096C535.881 675.337 541.634 672.624 548.156 665C549.759 663.108 551.095 661.007 552.128 658.754C557.67 658.439 563.792 657.955 568.228 657.587L568.291 658.207C568.534 660.31 568.902 662.729 570.588 664.064C571.54 664.708 572.617 665.145 573.749 665.347C584.401 667.966 595.18 670.605 606.138 670.605C611.284 670.499 616.42 670.102 621.521 669.417L640.803 667.198C646.414 667.919 651.952 669.122 657.356 670.795C662.919 672.687 668.124 675.495 673.561 677.703C686.205 682.825 699.818 684.654 713.294 686.442C715.591 686.747 718.225 686.957 719.932 685.391C722.124 683.287 721.386 679.765 720.775 676.82C720.522 675.621 720.332 674.402 720.174 673.182C729.271 675.568 738.169 678.651 746.79 682.404L748.307 683.067C748.739 685.359 750.867 687.199 752.901 689.67C753.568 690.71 754.349 691.673 755.229 692.541C756.232 693.201 757.376 693.615 758.569 693.751C772.809 696.397 787.348 697.051 801.769 695.696C804.719 695.296 807.702 695.194 810.672 695.391C812.853 695.686 815.004 696.172 817.099 696.842L829.301 700.323C838.288 702.899 847.508 705.497 856.832 704.918C858.726 704.795 860.607 704.524 862.459 704.109C869.834 702.405 876.715 698.283 880.255 691.658C885.007 682.646 882.699 671.573 879.992 661.73ZM522.11 497.252C521.734 501.812 520.542 506.268 518.591 510.407C517.284 513.047 515.598 515.476 514.376 518.126C513.217 520.524 512.353 525.056 511.837 530.03C511.205 529.925 510.562 529.83 509.93 529.757C510.867 526.476 511.573 523.111 512.511 519.819C514.734 511.995 518.39 504.603 522.11 497.252Z" fill="url(#paint0_linear)"/>
<path d="M538.087 659.38C535.839 654.244 533.708 648.339 535.956 643.203C537.423 640.179 539.944 637.8 543.041 636.516C546.106 635.262 549.336 634.461 552.63 634.141C562.97 632.779 573.433 632.636 583.805 633.713C584.562 639.726 582.964 645.824 581.589 651.634C580.343 656.983 579.629 657.775 574.131 658.053C570.572 658.246 538.929 661.273 538.087 659.38Z" fill="#FBBEBE"/>
<path d="M633 625C716.395 625 784 606.196 784 583C784 559.804 716.395 541 633 541C549.605 541 482 559.804 482 583C482 606.196 549.605 625 633 625Z" fill="#464353"/>
<path opacity="0.1" d="M633 625C716.395 625 784 606.196 784 583C784 559.804 716.395 541 633 541C549.605 541 482 559.804 482 583C482 606.196 549.605 625 633 625Z" fill="black"/>
<path d="M660.067 360.423C654.864 370.356 646.221 378.113 635.714 382.279C629.528 384.507 623.018 385.732 616.436 385.908C609.228 386.233 601.871 385.771 595.098 383.338C586.011 380.087 578.463 373.438 572.805 365.687C567.146 357.937 563.25 349.085 559.864 340.16C558.081 335.514 556.382 330.564 557.221 325.656C562.688 324.429 568.675 322.625 571.499 317.832C573.909 313.721 573.24 308.791 571.849 304.093C571.456 302.761 571 301.44 570.544 300.171C569.482 297.129 565.819 291.35 568.367 288.749C569.991 287.103 576.796 286.264 579.142 285.194C586.372 281.901 593.039 277.139 600.979 275.577C607.848 274.224 614.939 275.493 621.797 276.898C622.707 277.029 623.58 277.339 624.366 277.811C625.262 278.557 625.925 279.539 626.277 280.642C628.23 285.341 629.377 290.532 630.948 295.43C632.583 300.559 634.685 305.372 638.623 309.012C641.691 311.854 645.598 313.637 649.419 315.367L658.825 319.625C660.498 320.244 662.016 321.214 663.273 322.467C664.503 324.138 665.238 326.113 665.396 328.173C667.082 339.209 665.218 350.489 660.067 360.423V360.423Z" fill="#FBBEBE"/>
<path opacity="0.1" d="M630 295.871C622.563 303.731 612.77 308.864 602.155 310.465C591.54 312.067 580.701 310.047 571.337 304.721C570.947 303.36 570.493 302.01 570.04 300.714C568.986 297.607 565.347 291.703 567.878 289.046C569.492 287.364 576.251 286.507 578.582 285.414C585.763 282.05 592.385 277.186 600.273 275.589C607.096 274.207 614.14 275.504 620.952 276.939C621.856 277.073 622.724 277.39 623.504 277.871C624.394 278.633 625.052 279.637 625.402 280.764C627.3 285.564 628.439 290.868 630 295.871Z" fill="black"/>
<path d="M596 309C622.51 309 644 287.062 644 260C644 232.938 622.51 211 596 211C569.49 211 548 232.938 548 260C548 287.062 569.49 309 596 309Z" fill="#FBBEBE"/>
<path d="M742.864 417.93L738.903 394.041C736.902 382.055 734.837 369.839 729.242 359.042C725.564 351.969 719.727 345.23 711.857 343.832C710.307 343.695 708.784 343.344 707.331 342.789C705.025 341.683 703.768 339.201 701.997 337.365C697.428 332.649 689.988 332.576 683.869 330.177C678.462 328.091 674.04 324.074 669.115 321.007C664.19 317.94 658.06 315.791 652.611 317.753C651.73 327.089 650.798 336.634 646.816 345.136C644.224 350.671 640.423 355.56 635.689 359.444C630.956 363.328 625.41 366.109 619.458 367.585C613.505 369.061 607.297 369.194 601.287 367.974C595.276 366.754 589.616 364.212 584.719 360.534C575.382 353.534 569.399 342.737 566.612 331.439C565.931 328.685 565.155 325.524 562.609 324.262C559.853 322.885 556.542 324.554 554.226 326.578C549.982 330.323 546.608 335.685 541.096 336.947C539.105 337.406 536.904 337.313 535.249 338.512C534.148 339.523 533.227 340.712 532.524 342.028C531.318 343.724 529.707 345.095 527.835 346.017C525.964 346.939 523.891 347.382 521.805 347.306C519.887 347.212 517.613 346.774 516.303 348.162C515.329 349.205 515.255 350.832 514.208 351.802C512.793 353.169 510.498 352.501 508.528 352.428C504.798 352.272 501.329 354.65 499.191 357.644C497.054 360.638 496.048 364.342 495 367.93C506.453 393.322 516.932 418.744 528.385 444.135C528.922 445.092 529.207 446.169 529.213 447.265C528.983 448.402 528.496 449.473 527.788 450.395C522.171 459.376 522.35 470.674 522.968 481.231C523.586 491.788 524.34 502.94 519.604 512.402C518.315 514.999 516.639 517.378 515.413 519.975C512.541 525.859 511.504 544.678 513.181 551H750C745.484 538.638 747.202 513.831 748.145 500.708C748.805 491.528 747.097 482.358 746.364 473.178C744.824 454.432 745.976 436.645 742.864 417.93Z" fill="#3BCFBC"/>
<path d="M755.235 544.857C758.731 543.533 762.583 544.013 766.331 544.513C778.392 546.15 790.632 547.829 801.812 552.615C807.061 554.846 812.058 557.828 815.606 562.218C818.755 566.169 820.592 571.008 822.335 575.773L826.366 586.71C827.899 590.881 829.452 595.135 829.883 599.566C831.142 612.694 822.104 625.07 810.735 631.889C799.366 638.708 785.982 641.138 772.944 643.682C759.906 646.226 746.816 649.041 733.83 652.023C727.774 653.584 721.629 654.786 715.428 655.621C701.53 657.185 687.001 654.88 673.795 659.447C668.547 661.272 663.392 663.983 657.944 665.244C654.33 666.032 650.675 666.617 646.995 666.996L622.001 669.832C616.918 670.507 611.801 670.897 606.674 671C595.757 671 585.018 668.435 574.416 665.87C573.288 665.674 572.215 665.244 571.266 664.608C569.587 663.295 569.219 660.969 568.978 658.863C567.907 649.542 566.969 640.21 566.165 630.867C565.913 627.833 565.724 624.549 567.393 621.994C569.492 618.866 573.586 617.886 577.323 617.281C593.17 614.706 609.223 613.6 625.276 613.976C631.375 607.918 641.432 607.887 649.42 604.592C652.359 603.252 655.203 601.715 657.934 599.994C672.217 591.716 688.179 586.704 704.658 585.323C707.886 585.226 711.094 584.771 714.221 583.968C720.404 582.06 726.041 576.867 732.392 578.139C733.18 575.981 733.726 573.093 735.542 571.612C736.444 570.851 737.557 570.34 738.386 569.527C740.14 567.765 740.297 564.991 740.035 562.531C739.772 560.07 739.184 557.547 739.825 555.148C740.091 554.24 740.483 553.374 740.99 552.573C744.15 547.089 748.905 544.336 755.235 544.857Z" fill="#464353"/>
<path opacity="0.05" d="M755.235 544.857C758.731 543.533 762.583 544.013 766.331 544.513C778.392 546.15 790.632 547.829 801.812 552.615C807.061 554.846 812.058 557.828 815.606 562.218C818.755 566.169 820.592 571.008 822.335 575.773L826.366 586.71C827.899 590.881 829.452 595.135 829.883 599.566C831.142 612.694 822.104 625.07 810.735 631.889C799.366 638.708 785.982 641.138 772.944 643.682C759.906 646.226 746.816 649.041 733.83 652.023C727.774 653.584 721.629 654.786 715.428 655.621C701.53 657.185 687.001 654.88 673.795 659.447C668.547 661.272 663.392 663.983 657.944 665.244C654.33 666.032 650.675 666.617 646.995 666.996L622.001 669.832C616.918 670.507 611.801 670.897 606.674 671C595.757 671 585.018 668.435 574.416 665.87C573.288 665.674 572.215 665.244 571.266 664.608C569.587 663.295 569.219 660.969 568.978 658.863C567.907 649.542 566.969 640.21 566.165 630.867C565.913 627.833 565.724 624.549 567.393 621.994C569.492 618.866 573.586 617.886 577.323 617.281C593.17 614.706 609.223 613.6 625.276 613.976C631.375 607.918 641.432 607.887 649.42 604.592C652.359 603.252 655.203 601.715 657.934 599.994C672.217 591.716 688.179 586.704 704.658 585.323C707.886 585.226 711.094 584.771 714.221 583.968C720.404 582.06 726.041 576.867 732.392 578.139C733.18 575.981 733.726 573.093 735.542 571.612C736.444 570.851 737.557 570.34 738.386 569.527C740.14 567.765 740.297 564.991 740.035 562.531C739.772 560.07 739.184 557.547 739.825 555.148C740.091 554.24 740.483 553.374 740.99 552.573C744.15 547.089 748.905 544.336 755.235 544.857Z" fill="black"/>
<path d="M549.357 665.976C542.76 673.561 536.951 676.27 526.624 676.026C520.272 675.878 513.927 675.55 507.589 675.042C503.258 674.577 498.901 674.376 494.544 674.439C481.393 674.947 468.7 680.924 455.58 679.877C453.64 679.726 451.722 679.371 449.857 678.819C446.897 678.001 444.223 676.386 442.13 674.154C439.615 671.329 438.41 667.584 437.718 663.881C434.211 644.902 443.824 624.23 460.653 614.571C462.849 613.163 465.345 612.283 467.943 612C470.491 611.99 473.009 612.539 475.318 613.608L475.478 613.672C482.315 616.464 488.524 620.578 493.745 625.774C494.537 626.675 495.482 627.43 496.537 628.007C497.59 628.401 498.705 628.609 499.831 628.62L513.835 629.498C516.208 629.569 518.566 629.891 520.869 630.461C523.408 631.341 525.88 632.402 528.265 633.635C535.8 636.978 544.156 637.867 552.298 639.157C553.083 639.2 553.832 639.498 554.43 640.004C554.755 640.405 554.981 640.876 555.091 641.379C556.228 645.632 556.299 650.097 555.3 654.384C554.301 658.671 552.26 662.651 549.357 665.976V665.976Z" fill="#3F3D56"/>
<path opacity="0.1" d="M475 613.651C469.628 618.737 464.968 624.514 461.144 630.827C455.007 641.247 451.151 652.831 449.827 664.825C449.325 669.201 449.286 673.616 449.711 678C446.784 677.189 444.14 675.591 442.072 673.382C439.585 670.592 438.394 666.894 437.709 663.237C434.243 644.493 443.747 624.078 460.385 614.539C462.556 613.149 465.024 612.28 467.592 612C470.111 611.99 472.601 612.532 474.884 613.588L475 613.651Z" fill="black"/>
<path d="M743.103 639.974C750.789 639.764 759.416 639.376 765.063 644.572C770.448 649.485 771.159 657.588 771.515 664.884L771.923 673.355C772.048 675.938 772.153 678.604 771.117 680.997C769.277 685.196 764.226 687.222 759.615 686.981C755.003 686.739 750.768 684.713 746.554 682.887C735.113 677.939 723.2 674.172 711 671.644C711.397 665.787 712.06 659.957 712.987 654.156C713.625 650.135 713.729 643.407 716.406 640.069C719.24 636.541 722.931 638.452 726.78 639.103C732.179 639.93 737.647 640.222 743.103 639.974V639.974Z" fill="#FBBEBE"/>
<path d="M538.386 554.272C538.386 555.325 536.73 554.272 536.582 553.145C535.421 544.623 528.647 537.596 520.754 534.183C512.861 530.77 503.871 530.591 495.324 531.402C482.398 532.624 467.942 537.565 463.162 549.626C462.043 552.45 461.537 555.504 460.165 558.212C458.645 561.182 456.166 563.553 454.519 566.439C451.681 571.432 451.565 577.553 452.589 583.199C455.343 598.263 465.662 611.146 478.166 620.069C490.67 628.991 505.285 634.322 519.857 639.125C558.389 651.812 597.923 661.238 638.039 667.304C644.539 668.284 651.102 669.19 657.328 671.276C662.899 673.14 668.112 675.932 673.557 678.123C686.219 683.2 699.841 685.012 713.337 686.793C715.638 687.088 718.276 687.298 719.975 685.739C722.169 683.706 721.441 680.167 720.819 677.249C718.527 666.163 720.441 654.623 726.19 644.866C728.448 641.074 731.381 637.187 730.959 632.794C730.453 627.675 725.345 624.051 720.259 623.229C715.173 622.407 710.003 623.619 704.896 624.282C703.134 624.514 701.213 624.662 699.62 623.766C698.861 623.255 698.173 622.645 697.573 621.954C694.054 618.566 689.552 616.377 684.71 615.701C679.869 615.026 674.937 615.898 670.623 618.194C668.734 619.247 665.875 616.898 663.912 616.013L641.742 605.974C616.249 594.46 590.629 582.893 563.658 575.604C561.506 575.181 559.461 574.333 557.644 573.107C556.303 572.054 555.343 570.621 554.109 569.452C551.418 566.913 547.672 565.902 544.443 564.1C541.214 562.299 537.627 557.885 538.386 554.272Z" fill="#464353"/>
<path d="M880.198 691.718C876.652 698.312 869.773 702.419 862.387 704.113C860.533 704.532 858.649 704.802 856.752 704.917C847.414 705.499 838.191 702.906 829.191 700.345L816.972 696.873C814.871 696.21 812.718 695.728 810.535 695.434C807.564 695.234 804.58 695.337 801.63 695.74C787.188 697.088 772.631 696.433 758.368 693.793C757.174 693.664 756.028 693.254 755.023 692.597C754.142 691.731 753.36 690.768 752.691 689.728C749.367 685.717 745.79 683.378 749.726 678.085C751.994 675.016 756.205 673.481 757.967 669.956C759.729 666.432 758.6 661.425 757.555 657.784C756.131 652.757 751.446 650.587 749.768 645.972C748.512 642.49 750.623 638.446 753.799 636.552C756.975 634.657 760.9 634.509 764.562 634.996C768.223 635.483 771.811 636.52 775.493 636.806C786.319 637.674 797.388 632.074 807.781 635.229C810.071 635.927 812.234 637.039 814.556 637.652C819.081 638.668 823.809 638.258 828.093 636.478C829.613 635.906 831.101 635.218 832.578 634.541C835.427 633.053 838.461 631.953 841.6 631.27C851.74 629.523 861.142 636.562 868.792 643.432C871.418 645.618 873.742 648.145 875.703 650.947C877.813 654.249 878.932 658.091 879.924 661.88C882.72 671.692 885.031 682.721 880.198 691.718Z" fill="#3F3D56"/>
<path opacity="0.1" d="M880.16 692.293C876.572 699.053 869.608 703.264 862.131 705C865.039 699.259 866.35 692.821 865.923 686.379C865.282 676.059 860.817 666.336 855.124 657.763C851.622 652.486 847.638 647.556 843.226 643.038C839.829 639.566 835.653 636.809 832 633.63C834.884 632.105 837.955 630.977 841.132 630.277C851.397 628.486 860.913 635.702 868.657 642.745C871.315 644.986 873.668 647.577 875.653 650.45C877.789 653.835 878.921 657.774 879.925 661.659C882.713 671.762 885.052 683.069 880.16 692.293Z" fill="black"/>
<path d="M562.921 182.807C559.417 185.328 557.019 188.949 554.579 192.424C550.086 198.846 544.997 205.257 537.813 208.837C535.092 210.196 531.985 211.223 530.181 213.588C529.11 215.188 528.416 217.007 528.148 218.91C526.772 225.603 526.052 232.413 526 239.244C526 242.647 526.146 246.154 527.658 249.245C529.086 252.15 531.662 254.609 532.193 257.773C532.6 260.242 531.682 262.701 531.359 265.18C531.036 267.66 531.599 270.596 533.903 271.778C535.145 272.243 536.442 272.547 537.761 272.681C544.695 274.216 547.02 282.308 548.073 289C550.43 288.865 551.493 286.178 551.983 283.989L559.209 252.025C559.991 248.56 561.294 244.545 564.766 243.332C567.091 242.533 569.635 243.28 572.065 243.487C581.605 244.265 589.675 236.931 599.007 234.908C601.995 234.311 605.049 234.112 608.089 234.316C615.45 234.679 624.01 237.688 625.574 244.525C625.835 245.635 625.991 246.963 627.034 247.513C628.077 248.062 629.119 247.596 630.266 247.513C634.938 247.046 637.69 252.274 639.035 256.549L643.936 272.11C644.666 274.465 645.896 277.235 648.461 277.536C650.828 277.827 652.84 275.596 653.195 273.386C653.549 271.177 652.777 268.884 652.267 266.664C649.962 256.445 653.486 245.988 655.634 235.748C657.782 225.508 658.168 213.744 650.963 205.859C648.346 203.006 644.905 200.879 642.466 197.871C640.193 195.049 638.91 191.584 636.554 188.814C630.037 181.168 613.323 175.265 603.074 174.29C591.406 173.014 572.388 175.97 562.921 182.807Z" fill="#3F3D56"/>
<g opacity="0.1">
<path opacity="0.1" d="M648.412 270.438C645.826 270.123 644.586 267.285 643.85 264.94C642.203 259.678 640.557 254.422 638.91 249.173C637.554 244.832 634.779 239.534 630.07 240.018C629.018 240.133 627.778 240.564 626.811 240.018C625.844 239.471 625.602 238.115 625.339 236.99C623.763 230.053 615.133 227.015 607.712 226.647C604.647 226.446 601.569 226.647 598.556 227.246C589.096 229.349 581.012 236.707 571.394 235.939C568.914 235.74 566.349 234.983 564.036 235.792C560.494 237.011 559.222 241.048 558.434 244.601L551.149 276.976C550.655 279.205 549.583 281.927 547.207 282.053C546.156 275.284 543.802 267.085 536.812 265.529C535.483 265.383 534.177 265.076 532.922 264.615C532.008 264.115 531.292 263.318 530.894 262.355C530.704 263.332 530.484 264.31 530.358 265.287C530.042 267.789 530.599 270.774 532.922 271.973C534.174 272.443 535.481 272.751 536.812 272.887C543.802 274.443 546.146 282.642 547.207 289.422C549.583 289.285 550.655 286.563 551.149 284.345L558.434 251.959C559.222 248.448 560.536 244.38 564.036 243.15C566.38 242.341 568.945 243.098 571.394 243.308C581.012 244.096 589.148 236.665 598.556 234.615C601.554 234.014 604.619 233.813 607.67 234.016C615.091 234.384 623.721 237.432 625.297 244.359C625.56 245.484 625.718 246.829 626.769 247.386C627.82 247.943 628.871 247.47 630.028 247.386C634.737 246.913 637.512 252.211 638.868 256.542C640.508 261.805 642.154 267.06 643.808 272.309C644.544 274.695 645.784 277.502 648.37 277.807C650.756 278.101 652.785 275.841 653.142 273.602C653.304 271.718 653.089 269.821 652.512 268.02C652.138 268.779 651.551 269.412 650.823 269.841C650.095 270.27 649.257 270.478 648.412 270.438Z" fill="black"/>
<path opacity="0.1" d="M531.167 250.424C530.631 247.218 528.013 244.727 526.594 241.784C525.682 239.798 525.154 237.658 525.039 235.477C525.039 236.654 524.934 237.831 524.923 239.019C524.923 242.467 525.07 246.02 526.594 249.152C527.761 251.538 529.685 253.641 530.652 256.069C531.162 254.234 531.336 252.321 531.167 250.424Z" fill="black"/>
<path opacity="0.1" d="M655.644 228.056C653.731 237.222 650.746 246.556 651.671 255.743C652.27 248.963 654.246 242.141 655.644 235.414C656.809 230.308 657.22 225.06 656.863 219.836C656.635 222.599 656.227 225.345 655.644 228.056V228.056Z" fill="black"/>
</g>
<path d="M534.83 464.467C533.566 485.279 518.348 502.476 512.551 522.492C511.109 527.501 510.242 532.699 508.174 537.467C503.996 547.056 495.4 554.015 486.24 558.919C482.898 560.857 479.242 562.191 475.44 562.86C471.26 563.35 467.031 562.55 463.315 560.567C459.6 558.585 456.575 555.513 454.644 551.762C452.252 546.889 451.918 541.282 450.466 536.042C448.847 529.996 445.818 524.42 443.844 518.478C440.209 507.548 440.282 495.58 442.799 484.346C445.184 474.577 448.959 465.203 454.007 456.512C454.738 455.223 455.479 453.945 456.242 452.677C458.396 449.011 460.816 445.509 463.48 442.197C469.747 434.621 477.8 428.794 485.77 423.051C486.378 422.548 487.093 422.19 487.859 422.003H487.984C488.883 421.971 489.773 422.181 490.564 422.611C501.616 427.405 512.224 433.17 522.265 439.839C525.858 442.239 531.529 444.922 533.409 449.009C535.289 453.096 535.101 460.023 534.83 464.467Z" fill="#FBBEBE"/>
<path d="M493.563 367.734C492.549 368.81 491.762 370.085 491.251 371.481C482.831 390.711 477.857 411.307 476.563 432.304C476.586 433.328 476.353 434.341 475.886 435.249C475.426 435.854 474.914 436.415 474.355 436.928C473.848 437.537 473.47 438.245 473.243 439.008C473.017 439.771 472.948 440.574 473.039 441.365C473.131 442.157 473.382 442.921 473.777 443.61C474.172 444.299 474.702 444.899 475.334 445.372C477.053 442.09 481.168 441.023 484.824 440.738C502.334 439.334 519.438 447.589 537 446.966C535.76 442.628 533.979 438.458 532.969 434.067C528.5 414.57 539.646 393.342 532.813 374.563C531.448 370.805 529.167 367.111 525.573 365.464C524.085 364.855 522.528 364.437 520.938 364.218C516.5 363.406 507.667 359.933 503.376 361.326C501.792 361.843 501.167 363.353 499.855 364.261C497.907 365.559 495.261 366.013 493.563 367.734Z" fill="#3BCFBC"/>
<path opacity="0.1" d="M500.154 542.606C497.42 547.231 493.539 551.076 488.883 553.77C484.227 556.465 478.955 557.919 473.572 557.993C470.659 558.069 467.762 557.538 465.066 556.434C458.272 553.444 454.434 546.042 453.009 538.767C451.584 531.493 452.031 523.985 451.021 516.636C450.213 510.783 448.49 505.099 447.597 499.256C445.407 484.803 449.723 470.529 452.796 456.139C453.541 454.835 454.295 453.541 455.072 452.258C457.265 448.549 459.728 445.005 462.44 441.654C468.82 433.987 477.017 428.091 485.13 422.28H476.624C476.83 422.13 477.071 422.036 477.325 422.009C477.578 421.981 477.835 422.02 478.068 422.122C478.302 422.224 478.504 422.385 478.656 422.59C478.807 422.794 478.902 423.035 478.931 423.288C479.771 430.711 490.266 438.134 492.552 445.344C493.966 449.777 495.667 454.125 496.805 458.642C497.701 462.49 498.383 466.384 498.846 470.307C500.356 481.286 501.859 492.243 503.354 503.18C505.236 516.53 506.852 530.963 500.154 542.606Z" fill="black"/>
<path d="M487.464 403.371L497.562 371.499C499.069 366.73 500.597 361.886 500.775 356.874C500.953 351.863 499.645 346.608 496.16 343.029C493.335 340.133 489.421 338.638 486.072 336.374C477.7 330.699 473.514 320.759 469.151 311.609C464.787 302.46 459.042 292.889 449.519 289.498C447.321 288.719 444.286 288.656 443.303 290.772C442.962 291.652 442.908 292.618 443.146 293.531C444.067 298.395 447.53 302.281 450.544 306.166C455.599 312.747 459.826 320.801 458.613 329.035C457.168 338.785 448.462 346.345 447.415 356.148C446.955 360.465 448.054 364.792 448.043 369.141C448.043 371.836 447.604 374.585 448.2 377.217C448.819 379.252 449.557 381.249 450.408 383.197C451.34 386.345 451.827 389.61 451.852 392.895L454.06 434.338C455.253 456.754 443.167 478.56 446.494 500.672C447.373 506.473 449.069 512.117 449.864 517.929C450.911 525.226 450.419 532.67 451.821 539.903C453.223 547.137 457.053 554.476 463.688 557.445C466.341 558.541 469.193 559.069 472.06 558.993C477.357 558.92 482.547 557.476 487.129 554.8C491.711 552.124 495.531 548.307 498.222 543.715C504.814 532.133 503.224 517.824 501.424 504.62L496.987 471.98C496.531 468.084 495.86 464.218 494.978 460.397C493.868 455.912 492.194 451.595 490.792 447.194C486.302 432.8 482.943 417.67 487.464 403.371Z" fill="#FBBEBE"/>
<path d="M756.637 406H539.363C534.744 406 531 409.744 531 414.363V546.637C531 551.256 534.744 555 539.363 555H756.637C761.256 555 765 551.256 765 546.637V414.363C765 409.744 761.256 406 756.637 406Z" fill="#3F3D56"/>
<path opacity="0.2" d="M756.637 406H539.363C534.744 406 531 409.744 531 414.363V546.637C531 551.256 534.744 555 539.363 555H756.637C761.256 555 765 551.256 765 546.637V414.363C765 409.744 761.256 406 756.637 406Z" fill="black"/>
<path d="M648 487C651.314 487 654 484.314 654 481C654 477.686 651.314 475 648 475C644.686 475 642 477.686 642 481C642 484.314 644.686 487 648 487Z" fill="#CFE1DF"/>
<path d="M371.163 603H383.837C390.776 603 397.43 605.756 402.337 610.663C407.244 615.57 410 622.224 410 629.163V668H345V629.163C345 622.224 347.756 615.57 352.663 610.663C357.57 605.756 364.224 603 371.163 603Z" fill="#3F3D56"/>
<path opacity="0.1" d="M371.163 603H383.837C390.776 603 397.43 605.756 402.337 610.663C407.244 615.57 410 622.224 410 629.163V668H345V629.163C345 622.224 347.756 615.57 352.663 610.663C357.57 605.756 364.224 603 371.163 603Z" fill="black"/>
<path d="M374.5 617C377.538 617 380 614.538 380 611.5C380 608.462 377.538 606 374.5 606C371.462 606 369 608.462 369 611.5C369 614.538 371.462 617 374.5 617Z" fill="#3F3D56"/>
<path d="M374.5 611C377.538 611 380 608.538 380 605.5C380 602.462 377.538 600 374.5 600C371.462 600 369 602.462 369 605.5C369 608.538 371.462 611 374.5 611Z" fill="#3F3D56"/>
<path d="M374.5 604C377.538 604 380 601.538 380 598.5C380 595.462 377.538 593 374.5 593C371.462 593 369 595.462 369 598.5C369 601.538 371.462 604 374.5 604Z" fill="#3F3D56"/>
<path d="M374.5 598C377.538 598 380 595.761 380 593C380 590.239 377.538 588 374.5 588C371.462 588 369 590.239 369 593C369 595.761 371.462 598 374.5 598Z" fill="#3F3D56"/>
<path d="M374.5 591C377.538 591 380 588.761 380 586C380 583.239 377.538 581 374.5 581C371.462 581 369 583.239 369 586C369 588.761 371.462 591 374.5 591Z" fill="#3F3D56"/>
<path d="M374.5 584C377.538 584 380 581.538 380 578.5C380 575.462 377.538 573 374.5 573C371.462 573 369 575.462 369 578.5C369 581.538 371.462 584 374.5 584Z" fill="#3F3D56"/>
<path d="M374.5 578C377.538 578 380 575.761 380 573C380 570.239 377.538 568 374.5 568C371.462 568 369 570.239 369 573C369 575.761 371.462 578 374.5 578Z" fill="#3F3D56"/>
<path d="M383 581C386.314 581 389 578.538 389 575.5C389 572.462 386.314 570 383 570C379.686 570 377 572.462 377 575.5C377 578.538 379.686 581 383 581Z" fill="#3F3D56"/>
<path d="M387.5 578C389.985 578 392 575.761 392 573C392 570.239 389.985 568 387.5 568C385.015 568 383 570.239 383 573C383 575.761 385.015 578 387.5 578Z" fill="#3F3D56"/>
<path d="M393.5 576C395.985 576 398 573.761 398 571C398 568.239 395.985 566 393.5 566C391.015 566 389 568.239 389 571C389 573.761 391.015 576 393.5 576Z" fill="#3F3D56"/>
<path d="M374.5 571C377.538 571 380 568.761 380 566C380 563.239 377.538 561 374.5 561C371.462 561 369 563.239 369 566C369 568.761 371.462 571 374.5 571Z" fill="#3F3D56"/>
<path d="M374.5 566C377.538 566 380 563.538 380 560.5C380 557.462 377.538 555 374.5 555C371.462 555 369 557.462 369 560.5C369 563.538 371.462 566 374.5 566Z" fill="#3F3D56"/>
<path d="M374.5 559C377.538 559 380 556.314 380 553C380 549.686 377.538 547 374.5 547C371.462 547 369 549.686 369 553C369 556.314 371.462 559 374.5 559Z" fill="#3F3D56"/>
<path d="M374.5 551C377.538 551 380 549.209 380 547C380 544.791 377.538 543 374.5 543C371.462 543 369 544.791 369 547C369 549.209 371.462 551 374.5 551Z" fill="#3F3D56"/>
<path d="M396.458 530.217C395.175 530.405 393.882 530.54 392.59 530.624C393.791 529.575 394.907 528.431 395.926 527.204C395.205 525.028 394.149 522.977 392.798 521.125C391.514 521.847 390.094 522.294 388.627 522.439C387.345 522.627 386.052 522.772 384.759 522.856C386.497 521.203 388.15 519.463 389.712 517.643C385.963 514.271 381.171 512.29 376.136 512.029C371.101 511.769 366.129 513.246 362.053 516.213C357.977 519.18 355.044 523.457 353.744 528.328C352.444 533.199 352.857 538.369 354.913 542.972C356.969 547.575 360.543 551.333 365.039 553.615C369.534 555.898 374.676 556.568 379.606 555.512C384.536 554.457 388.954 551.74 392.12 547.817C395.286 543.893 397.009 539.002 397 533.96C397 532.691 396.889 531.425 396.666 530.175L396.458 530.217Z" fill="#00BFA6"/>
<path d="M414.27 555.542C412.841 556.354 411.233 556.854 409.566 557.005C408.182 557.193 406.786 557.329 405.391 557.413C406.874 556.177 408.258 554.843 409.532 553.421C406.16 552.604 402.581 552.985 399.495 554.489C396.409 555.992 394.038 558.511 392.845 561.551C391.653 564.592 391.724 567.936 393.046 570.931C394.368 573.925 396.845 576.354 399.993 577.742C403.14 579.131 406.733 579.379 410.068 578.439C413.402 577.499 416.239 575.438 418.024 572.658C419.809 569.879 420.414 566.581 419.719 563.41C419.025 560.239 417.082 557.422 414.27 555.511V555.542Z" fill="#3BCFBC"/>
<path d="M396.458 530.217C395.175 530.405 393.882 530.54 392.59 530.624C393.791 529.575 394.907 528.431 395.926 527.204C395.205 525.028 394.149 522.977 392.798 521.125C391.514 521.847 390.094 522.294 388.627 522.439C387.345 522.627 386.052 522.772 384.759 522.856C386.497 521.203 388.15 519.463 389.712 517.643C385.963 514.271 381.171 512.29 376.136 512.029C371.101 511.769 366.129 513.246 362.053 516.213C357.977 519.18 355.044 523.457 353.744 528.328C352.444 533.199 352.857 538.369 354.913 542.972C356.969 547.575 360.543 551.333 365.039 553.615C369.534 555.898 374.676 556.568 379.606 555.512C384.536 554.457 388.954 551.74 392.12 547.817C395.286 543.893 397.009 539.002 397 533.96C397 532.691 396.889 531.425 396.666 530.175L396.458 530.217Z" fill="#3BCFBC"/>
<path d="M366.5 581C368.985 581 371 578.538 371 575.5C371 572.462 368.985 570 366.5 570C364.015 570 362 572.462 362 575.5C362 578.538 364.015 581 366.5 581Z" fill="#3F3D56"/>
<path d="M361.5 578C364.538 578 367 575.761 367 573C367 570.239 364.538 568 361.5 568C358.462 568 356 570.239 356 573C356 575.761 358.462 578 361.5 578Z" fill="#3F3D56"/>
<path d="M357 576C359.761 576 362 573.761 362 571C362 568.239 359.761 566 357 566C354.239 566 352 568.239 352 571C352 573.761 354.239 576 357 576Z" fill="#3F3D56"/>
<path d="M336.116 555.542C337.391 556.356 338.827 556.856 340.316 557.005C341.552 557.193 342.798 557.329 344.044 557.413C342.717 556.18 341.481 554.845 340.346 553.421C343.357 552.604 346.553 552.985 349.308 554.489C352.063 555.992 354.18 558.511 355.245 561.551C356.31 564.592 356.246 567.936 355.066 570.931C353.886 573.925 351.674 576.354 348.864 577.742C346.053 579.131 342.846 579.379 339.868 578.439C336.891 577.499 334.358 575.438 332.764 572.658C331.17 569.879 330.631 566.581 331.251 563.41C331.871 560.239 333.605 557.422 336.116 555.511V555.542Z" fill="#3BCFBC"/>
<path d="M371.163 606H383.837C390.776 606 397.43 608.799 402.337 613.781C407.244 618.763 410 625.52 410 632.566V667.494C410 668.689 409.533 669.835 408.7 670.68C407.868 671.525 406.74 672 405.563 672H349.437C348.26 672 347.132 671.525 346.3 670.68C345.467 669.835 345 668.689 345 667.494V632.566C345 625.52 347.756 618.763 352.663 613.781C357.57 608.799 364.224 606 371.163 606Z" fill="#3F3D56"/>
<g opacity="0.1">
<path opacity="0.1" d="M396.788 531.249C396.259 531.814 395.697 532.348 395.106 532.847C395.705 532.847 396.294 532.753 396.893 532.69C396.872 532.206 396.84 531.722 396.788 531.249Z" fill="black"/>
<path opacity="0.1" d="M387.264 525.006C388.578 524.922 389.871 524.785 391.175 524.596C392.344 524.447 393.487 524.136 394.57 523.671C394.038 522.62 393.427 521.611 392.741 520.654C392.087 521.052 391.379 521.353 390.639 521.547C389.608 522.788 388.479 523.945 387.264 525.006Z" fill="black"/>
<path opacity="0.1" d="M355.152 536.221C355.144 532.236 356.211 528.323 358.241 524.893C360.27 521.463 363.187 518.644 366.684 516.733C370.181 514.822 374.129 513.89 378.112 514.034C382.094 514.178 385.964 515.394 389.314 517.553L389.65 517.196C387.464 515.25 384.915 513.757 382.149 512.802C379.383 511.846 376.456 511.448 373.535 511.629C370.614 511.81 367.758 512.567 365.132 513.857C362.505 515.146 360.16 516.943 358.23 519.143C356.301 521.344 354.827 523.904 353.891 526.677C352.956 529.45 352.579 532.38 352.781 535.299C352.984 538.218 353.762 541.069 355.07 543.686C356.379 546.303 358.193 548.635 360.407 550.549C357.008 546.55 355.145 541.47 355.152 536.221V536.221Z" fill="black"/>
</g>
<g opacity="0.1">
<path opacity="0.1" d="M405.554 560.261C406.858 560.177 408.161 560.04 409.454 559.851C411.012 559.704 412.516 559.201 413.848 558.38C415.324 559.466 416.555 560.852 417.46 562.445C418.366 564.039 418.926 565.805 419.104 567.63C419.155 567.172 419.179 566.713 419.177 566.253C419.187 564.211 418.717 562.196 417.804 560.37C416.891 558.544 415.561 556.958 413.922 555.741C412.587 556.558 411.085 557.061 409.528 557.213L408.477 557.339C407.58 558.387 406.603 559.364 405.554 560.261V560.261Z" fill="black"/>
<path opacity="0.1" d="M406.08 555.804C406.516 555.809 406.951 555.841 407.383 555.899C408.067 555.173 408.739 554.396 409.423 553.639C407.49 553.123 405.465 553.058 403.503 553.45C401.542 553.842 399.697 554.681 398.112 555.9C396.526 557.12 395.243 558.688 394.361 560.483C393.479 562.278 393.021 564.252 393.025 566.253C393.025 566.694 393.025 567.125 393.088 567.556C393.411 564.335 394.919 561.349 397.32 559.177C399.721 557.006 402.843 555.804 406.08 555.804V555.804Z" fill="black"/>
</g>
<g opacity="0.1">
<path opacity="0.1" d="M343.925 560.261C342.622 560.177 341.319 560.04 340.026 559.851C338.467 559.706 336.963 559.203 335.632 558.38C334.156 559.466 332.925 560.852 332.02 562.445C331.114 564.039 330.554 565.805 330.376 567.63C330.325 567.172 330.301 566.713 330.303 566.253C330.293 564.211 330.763 562.196 331.676 560.37C332.589 558.544 333.919 556.958 335.558 555.741C336.892 556.56 338.395 557.063 339.952 557.213L341.003 557.339C341.895 558.392 342.872 559.37 343.925 560.261Z" fill="black"/>
<path opacity="0.1" d="M343.4 555.804C342.96 555.809 342.522 555.841 342.086 555.899C341.413 555.173 340.74 554.396 340.057 553.639C341.99 553.123 344.015 553.058 345.976 553.45C347.938 553.842 349.783 554.681 351.368 555.9C352.953 557.12 354.237 558.688 355.119 560.483C356.001 562.278 356.458 564.252 356.455 566.253C356.455 566.694 356.455 567.125 356.392 567.556C356.069 564.335 354.561 561.349 352.16 559.177C349.759 557.006 346.637 555.804 343.4 555.804Z" fill="black"/>
</g>
<defs>
<linearGradient id="paint0_linear" x1="659.948" y1="705.003" x2="659.948" y2="166.961" gradientUnits="userSpaceOnUse">
<stop stop-color="#808080" stop-opacity="0.25"/>
<stop offset="0.54" stop-color="#808080" stop-opacity="0.12"/>
<stop offset="1" stop-color="#808080" stop-opacity="0.1"/>
</linearGradient>
</defs>
</svg>
