<svg width="1025" height="613" viewBox="0 0 1025 613" fill="none" xmlns="http://www.w3.org/2000/svg">
<g clip-path="url(#clip0)">
<path d="M784.764 606.068C771.641 594.976 763.67 577.454 765.761 560.396C767.851 543.338 780.798 527.656 797.593 524.034C814.387 520.411 833.532 530.438 838.633 546.849C841.44 515.21 844.675 482.245 861.491 455.301C876.718 430.904 903.09 413.447 931.673 410.324C960.255 407.201 990.348 418.996 1008.17 441.563C1026 464.13 1030.36 496.937 1017.88 522.845C1008.68 541.931 991.738 556.135 973.985 567.691C916.618 604.716 847.814 619.773 780.232 610.091L784.764 606.068Z" fill="#3BCFBC"/>
<path d="M979.909 419.65C956.326 438.866 934.69 460.357 915.315 483.812C884.994 520.395 860.458 561.41 842.561 605.43C841.251 608.641 846.464 610.039 847.76 606.863C877.042 535.322 923.787 472.267 983.721 423.463C986.413 421.271 982.579 417.476 979.909 419.65Z" fill="white"/>
<path d="M329.964 603.054C347.988 587.819 358.936 563.752 356.065 540.323C353.194 516.894 335.411 495.355 312.344 490.38C289.277 485.405 262.982 499.177 255.976 521.717C252.12 478.261 247.677 432.983 224.58 395.976C203.666 362.467 167.443 338.489 128.185 334.2C88.9277 329.91 47.5944 346.111 23.1109 377.107C-1.37267 408.102 -7.36736 453.163 9.78027 488.748C22.4123 514.962 45.6851 534.471 70.0691 550.343C147.863 600.979 244.365 622.097 336.189 608.58" fill="#3BCFBC"/>
<path d="M61.9321 347.009C94.3245 373.402 124.041 402.92 150.652 435.136C177.267 467.319 200.699 502.009 220.618 538.718C231.752 559.31 241.754 580.495 250.58 602.178C252.379 606.588 245.219 608.508 243.44 604.147C227.808 565.92 208.469 529.318 185.699 494.865C163.04 460.537 137.106 428.488 108.26 399.17C91.9448 382.595 74.7309 366.931 56.6963 352.247C52.9997 349.236 58.266 344.023 61.932 347.009L61.9321 347.009Z" fill="white"/>
<path d="M735.761 611.658H305.733V170.298C305.733 76.3951 382.104 0 475.977 0H565.518C659.39 0 735.761 76.3951 735.761 170.298V611.658Z" fill="#F2F2F2"/>
<path d="M646.221 611.658H305.733V170.298C305.639 134.317 317.029 99.2445 338.245 70.1882C339.027 69.1219 339.807 68.0694 340.612 67.0284C350.874 53.5649 363.086 41.7079 376.845 31.8486C377.622 31.2829 378.402 30.727 379.194 30.1711C390.708 22.2012 403.162 15.6859 416.274 10.7736C417.052 10.4784 417.845 10.1826 418.638 9.89894C430.496 5.66574 442.789 2.76602 455.288 1.25332C456.063 1.14743 456.859 1.06456 457.655 0.981702C469.836 -0.32113 482.121 -0.32113 494.302 0.981702C495.095 1.06456 495.891 1.14742 496.675 1.25445C509.171 2.76725 521.461 5.66662 533.316 9.89899C534.109 10.1827 534.902 10.4785 535.683 10.7743C548.633 15.6246 560.94 22.0426 572.331 29.8851C573.122 30.4289 573.914 30.9848 574.695 31.5407C582.407 37.0477 589.651 43.1828 596.354 49.8834C601.728 55.258 606.737 60.987 611.345 67.0319C612.147 68.0695 612.927 69.122 613.708 70.1866C634.924 99.2431 646.315 134.316 646.221 170.298V611.658Z" fill="#CCCCCC"/>
<path d="M618.534 414.254C628.945 414.254 637.385 405.812 637.385 395.398C637.385 384.983 628.945 376.541 618.534 376.541C608.124 376.541 599.684 384.983 599.684 395.398C599.684 405.812 608.124 414.254 618.534 414.254Z" fill="#3BCFBC"/>
<path d="M700.533 598.439H686.089L679.217 542.708L700.536 542.709L700.533 598.439Z" fill="#FFB8B8"/>
<path d="M675.772 594.31H703.628V611.855H658.232C658.232 609.551 658.686 607.269 659.568 605.141C660.449 603.012 661.741 601.078 663.369 599.449C664.998 597.82 666.932 596.527 669.06 595.645C671.188 594.764 673.468 594.31 675.772 594.31V594.31Z" fill="#2F2E41"/>
<path d="M772.401 598.439H757.957L751.085 542.708L772.404 542.709L772.401 598.439Z" fill="#FFB8B8"/>
<path d="M747.639 594.31H775.496V611.855H730.1C730.1 609.551 730.554 607.269 731.435 605.141C732.317 603.012 733.609 601.078 735.237 599.449C736.866 597.82 738.8 596.527 740.927 595.645C743.055 594.764 745.336 594.31 747.639 594.31V594.31Z" fill="#2F2E41"/>
<path d="M628.075 399.133C627.036 397.602 626.345 395.861 626.051 394.033C625.757 392.206 625.867 390.336 626.374 388.556C626.881 386.776 627.771 385.129 628.983 383.73C630.195 382.332 631.699 381.216 633.389 380.461L682.49 245.087L706.65 258.277L650.588 387.645C651.667 390.569 651.636 393.786 650.501 396.689C649.367 399.591 647.207 401.976 644.432 403.392C641.657 404.808 638.459 405.156 635.445 404.372C632.43 403.587 629.808 401.723 628.075 399.133V399.133Z" fill="#FFB8B8"/>
<path d="M765.023 424.57C763.418 423.65 762.034 422.388 760.969 420.875C759.904 419.361 759.183 417.633 758.858 415.81C758.533 413.988 758.612 412.117 759.088 410.329C759.564 408.54 760.427 406.878 761.614 405.459L746.404 262.256L773.899 263.512L780.221 404.371C782.472 406.525 783.854 409.431 784.107 412.537C784.359 415.643 783.464 418.734 781.591 421.223C779.717 423.713 776.996 425.429 773.943 426.046C770.889 426.663 767.715 426.138 765.023 424.57V424.57Z" fill="#FFB8B8"/>
<path d="M721.159 220.013C737.141 220.013 750.096 207.053 750.096 191.067C750.096 175.08 737.141 162.121 721.159 162.121C705.178 162.121 692.222 175.08 692.222 191.067C692.222 207.053 705.178 220.013 721.159 220.013Z" fill="#FFB8B8"/>
<path d="M764.838 392.002H677.599L677.704 391.323C677.861 390.308 693.252 289.452 681.9 256.456C680.761 253.214 680.861 249.664 682.181 246.491C683.502 243.318 685.948 240.746 689.051 239.269H689.051C705.276 231.626 736.422 222.214 762.71 245.055C766.578 248.471 769.599 252.741 771.533 257.526C773.467 262.312 774.262 267.482 773.855 272.628L764.838 392.002Z" fill="#3BCFBC"/>
<path d="M694.354 304.357L655.078 296.386L673.489 252.745C674.59 248.518 677.323 244.901 681.087 242.687C684.852 240.473 689.34 239.843 693.568 240.935C697.796 242.026 701.419 244.751 703.642 248.511C705.864 252.271 706.505 256.76 705.423 260.992L694.354 304.357Z" fill="#3BCFBC"/>
<path d="M744.657 319.156L742.296 265.013C740.505 254.835 746.33 245.213 755.288 243.64C764.248 242.073 772.998 249.132 774.796 259.385L783.671 309.977L744.657 319.156Z" fill="#3BCFBC"/>
<path d="M761.936 385.52C775.973 438.998 777.504 506.99 773.717 581.156L754.867 578.799L720.7 437.375L701.849 581.156L680.643 579.978C674.307 502.159 668.138 435.354 678.286 391.412L761.936 385.52Z" fill="#2F2E41"/>
<path d="M740.226 213.437C734.827 219.189 724.802 216.101 724.099 208.243C724.043 207.633 724.047 207.019 724.111 206.409C724.474 202.929 726.484 199.768 726.003 196.093C725.894 195.178 725.553 194.307 725.013 193.561C720.711 187.798 710.613 196.138 706.553 190.921C704.064 187.723 706.99 182.687 705.08 179.112C702.558 174.394 695.09 176.721 690.407 174.137C685.196 171.262 685.508 163.265 688.938 158.401C693.121 152.468 700.455 149.303 707.698 148.847C714.941 148.39 722.134 150.349 728.896 152.985C736.579 155.98 744.198 160.119 748.926 166.877C754.675 175.095 755.229 186.144 752.353 195.753C750.604 201.599 744.634 208.74 740.226 213.437Z" fill="#2F2E41"/>
<path d="M989.634 612.417H119.804C119.433 612.415 119.077 612.267 118.815 612.004C118.553 611.741 118.406 611.385 118.406 611.013C118.406 610.642 118.553 610.285 118.815 610.022C119.077 609.759 119.433 609.611 119.804 609.61H989.634C990.005 609.611 990.361 609.759 990.623 610.022C990.885 610.285 991.032 610.642 991.032 611.013C991.032 611.385 990.885 611.741 990.623 612.004C990.361 612.267 990.005 612.415 989.634 612.417V612.417Z" fill="#3F3D56"/>
<path d="M552.558 483.787H399.397C397.379 483.798 395.44 483.008 394.005 481.591C392.569 480.174 391.754 478.245 391.738 476.227V134.253C391.754 132.235 392.569 130.306 394.005 128.889C395.44 127.471 397.379 126.681 399.397 126.692H552.558C554.575 126.681 556.514 127.471 557.949 128.889C559.385 130.306 560.2 132.235 560.216 134.253V476.227C560.2 478.245 559.385 480.174 557.949 481.591C556.514 483.008 554.575 483.798 552.558 483.787V483.787Z" fill="white"/>
<path d="M560.216 237.344H391.738V239.701H560.216V237.344Z" fill="#CCCCCC"/>
<path d="M560.805 371.827H392.328V374.184H560.805V371.827Z" fill="#CCCCCC"/>
<path d="M447.112 126.692H444.756V484.966H447.112V126.692Z" fill="#CCCCCC"/>
<path d="M506.02 126.692H503.664V484.966H506.02V126.692Z" fill="#CCCCCC"/>
</g>
<defs>
<clipPath id="clip0">
<rect width="1025" height="613" fill="white"/>
</clipPath>
</defs>
</svg>
